[b]RHCP - Red Hot Chili Peppers - Rock in Rio 2011[/b]

[img]http://img560.imageshack.us/img560/8996/rockinrio.png[/img]

[img]http://img339.imageshack.us/img339/867/vlcsnap2011092513h46m03.png[/img]

[img]http://img6.imageshack.us/img6/6145/vlcsnap2011092513h48m28.png[/img]

[img]http://img13.imageshack.us/img13/2289/vlcsnap2011092513h49m48.png[/img]

[img]http://img844.imageshack.us/img844/2717/vlcsnap2011092513h50m24.png[/img]

   [b]General[/b]

      Format : MPEG-PS
      File size : 3.19 GiB
      Duration : 1h 41mn
      Overall bit rate : 4 524 Kbps

   [b]Video[/b]

      ID : 224 (0xE0)
      Format : MPEG Video
      Format version : Version 2
      Format profile : Main@Main
      Format settings, BVOP : Yes
      Format settings, Matrix : Default
      Duration : 1h 41mn
      Bit rate mode : Variable
      Bit rate : 4 050 Kbps
      Width : 720 pixels
      Height : 480 pixels
      Display aspect ratio : 4:3
      Frame rate : 29.970 fps
      Standard : NTSC
      Color space : YUV
      Chroma subsampling : 4:2:0
      Bit depth : 8 bits
      Scan type : Interlaced
      Scan order : Top Field First
      Compression mode : Lossy
      Bits/(Pixel*Frame) : 0.391
      Stream size : 2.86 GiB (90%)

   [b]Audio[/b]

      ID : 189 (0xBD)-128 (0x80)
      Format : AC-3
      Format/Info : Audio Coding 3
      Mode extension : CM (complete main)
      Muxing mode : DVD-Video
      Duration : 1h 41mn
      Bit rate mode : Constant
      Bit rate : 384 Kbps
      Channel(s) : 2 channels
      Channel positions : Front: L R
      Sampling rate : 48.0 KHz
      Bit depth : 16 bits
      Compression mode : Lossy
      Stream size : 277 MiB (8%)

[b]Motörhead - Rock in Rio 2011:[/b]
[url]http://rcknr.io/SLPKNTnFA[/url]

[b]Slipknot - Rock in Rio 2011:[/b]
[url]http://rcknr.io/JOSSoVh[/url]

[img]http://img15.imageshack.us/img15/1050/brazilflagicon.png[/img]
